<?xml version="1.0" encoding="UTF-8" standalone="no"?>
<svg width="128px" height="150px" viewBox="0 0 128 150" version="1.1" xmlns="http://www.w3.org/2000/svg" xmlns:xlink="http://www.w3.org/1999/xlink">
    <!-- Generator: Sketch 49.3 (51167) - http://www.bohemiancoding.com/sketch -->
    <title>Group</title>
    <desc>Created with Sketch.</desc>
    <defs>
        <path d="M6,0 L121,0 C122.104569,-2.02906125e-16 123,0.8954305 123,2 L123,142 C123,143.104569 122.104569,144 121,144 L6,144 L6,0 Z" id="path-1"></path>
        <filter x="-3.4%" y="-2.8%" width="108.5%" height="106.9%" filterUnits="objectBoundingBox" id="filter-2">
            <feOffset dx="1" dy="1" in="SourceAlpha" result="shadowOffsetOuter1"></feOffset>
            <feMorphology radius="1" operator="erode" in="SourceAlpha" result="shadowInner"></feMorphology>
            <feOffset dx="1" dy="1" in="shadowInner" result="shadowInner"></feOffset>
            <feComposite in="shadowOffsetOuter1" in2="shadowInner" operator="out" result="shadowOffsetOuter1"></feComposite>
            <feGaussianBlur stdDeviation="1.5" in="shadowOffsetOuter1" result="shadowBlurOuter1"></feGaussianBlur>
            <feColorMatrix values="0 0 0 0 0.867639243   0 0 0 0 0.867639243   0 0 0 0 0.867639243  0 0 0 0.5 0" type="matrix" in="shadowBlurOuter1"></feColorMatrix>
        </filter>
    </defs>
    <g id="Page-3" stroke="none" stroke-width="1" fill="none" fill-rule="evenodd">
        <g id="Group" transform="translate(1.000000, 2.000000)">
            <g id="Rectangle-14-Copy">
                <use fill="black" fill-opacity="1" filter="url(#filter-2)" xlink:href="#path-1"></use>
                <path stroke="#4A4A4A" stroke-width="1" d="M6.5,0.5 L6.5,143.5 L121,143.5 C121.828427,143.5 122.5,142.828427 122.5,142 L122.5,2 C122.5,1.17157288 121.828427,0.5 121,0.5 L6.5,0.5 Z"></path>
            </g>
            <path d="M6,35 C9.3137085,35 12,32.3137085 12,29 C12,25.6862915 9.3137085,23 6,23 C2.6862915,23 0,25.6862915 0,29" id="Oval-7-Copy-11" stroke="#4A4A4A" transform="translate(6.000000, 29.000000) rotate(-90.000000) translate(-6.000000, -29.000000) "></path>
            <path d="M6,62.6666667 C9.3137085,62.6666667 12,59.9803752 12,56.6666667 C12,53.3529582 9.3137085,50.6666667 6,50.6666667 C2.6862915,50.6666667 0,53.3529582 0,56.6666667" id="Oval-7-Copy-10" stroke="#4A4A4A" transform="translate(6.000000, 56.666667) rotate(-90.000000) translate(-6.000000, -56.666667) "></path>
            <path d="M6,90.3333333 C9.3137085,90.3333333 12,87.6470418 12,84.3333333 C12,81.0196248 9.3137085,78.3333333 6,78.3333333 C2.6862915,78.3333333 0,81.0196248 0,84.3333333" id="Oval-7-Copy-8" stroke="#4A4A4A" transform="translate(6.000000, 84.333333) rotate(-90.000000) translate(-6.000000, -84.333333) "></path>
            <path d="M6,118 C9.3137085,118 12,115.313708 12,112 C12,108.686292 9.3137085,106 6,106 C2.6862915,106 0,108.686292 0,112" id="Oval-7-Copy-7" stroke="#4A4A4A" transform="translate(6.000000, 112.000000) rotate(-90.000000) translate(-6.000000, -112.000000) "></path>
        </g>
    </g>
</svg>